<svg xmlns="http://www.w3.org/2000/svg" viewBox="0 0 400 300" role="img" aria-labelledby="t d">
  <title id="t">Why the water</title>
  <desc id="d">Close view of rice stems standing in water; a frog on a stem, a dragonfly above, small fish below.</desc>
  <rect width="400" height="300" fill="#EAF4FB"/>
  <rect x="0" y="0" width="400" height="140" fill="#EAF4FB"/><rect x="0" y="140" width="400" height="160" fill="#8FC9E8"/>  <path d="M20 240 l0 -50 M20 240 l-8 -40 M20 240 l8 -40" stroke="#6AB04C" stroke-width="3" stroke-linecap="round"/>
  <path d="M47 240 l0 -50 M47 240 l-8 -40 M47 240 l8 -40" stroke="#6AB04C" stroke-width="3" stroke-linecap="round"/>
  <path d="M74 240 l0 -50 M74 240 l-8 -40 M74 240 l8 -40" stroke="#6AB04C" stroke-width="3" stroke-linecap="round"/>
  <path d="M101 240 l0 -50 M101 240 l-8 -40 M101 240 l8 -40" stroke="#6AB04C" stroke-width="3" stroke-linecap="round"/>
  <path d="M128 240 l0 -50 M128 240 l-8 -40 M128 240 l8 -40" stroke="#6AB04C" stroke-width="3" stroke-linecap="round"/>
  <path d="M155 240 l0 -50 M155 240 l-8 -40 M155 240 l8 -40" stroke="#6AB04C" stroke-width="3" stroke-linecap="round"/>
  <path d="M182 240 l0 -50 M182 240 l-8 -40 M182 240 l8 -40" stroke="#6AB04C" stroke-width="3" stroke-linecap="round"/>
  <path d="M209 240 l0 -50 M209 240 l-8 -40 M209 240 l8 -40" stroke="#6AB04C" stroke-width="3" stroke-linecap="round"/>
  <path d="M236 240 l0 -50 M236 240 l-8 -40 M236 240 l8 -40" stroke="#6AB04C" stroke-width="3" stroke-linecap="round"/>
  <path d="M263 240 l0 -50 M263 240 l-8 -40 M263 240 l8 -40" stroke="#6AB04C" stroke-width="3" stroke-linecap="round"/>
  <path d="M290 240 l0 -50 M290 240 l-8 -40 M290 240 l8 -40" stroke="#6AB04C" stroke-width="3" stroke-linecap="round"/>
  <path d="M317 240 l0 -50 M317 240 l-8 -40 M317 240 l8 -40" stroke="#6AB04C" stroke-width="3" stroke-linecap="round"/>
  <path d="M344 240 l0 -50 M344 240 l-8 -40 M344 240 l8 -40" stroke="#6AB04C" stroke-width="3" stroke-linecap="round"/>
  <path d="M371 240 l0 -50 M371 240 l-8 -40 M371 240 l8 -40" stroke="#6AB04C" stroke-width="3" stroke-linecap="round"/>

  <g transform="translate(120 180) scale(0.9)">
    <ellipse cx="0" cy="4" rx="18" ry="12" fill="#6AB04C" stroke="#2B2B2B" stroke-width="4" stroke-linecap="round" stroke-linejoin="round"/>
    <circle cx="-8" cy="-8" r="6" fill="#6AB04C" stroke="#2B2B2B" stroke-width="4" stroke-linecap="round" stroke-linejoin="round"/><circle cx="8" cy="-8" r="6" fill="#6AB04C" stroke="#2B2B2B" stroke-width="4" stroke-linecap="round" stroke-linejoin="round"/>
    <circle cx="-8" cy="-8" r="2.5" fill="#2B2B2B"/><circle cx="8" cy="-8" r="2.5" fill="#2B2B2B"/>
    <path d="M-18 14 l-8 8 M18 14 l8 8" fill="none" stroke="#2B2B2B" stroke-width="4" stroke-linecap="round" stroke-linejoin="round"/>
  </g>
  <path d="M260 100 l40 0 M280 92 l0 16 M250 96 q30 -20 60 0 q-30 20 -60 0" stroke="#2A9D8F" stroke-width="3" fill="none"/>
  <path d="M180 260 q10 -8 20 0 q-10 8 -20 0 Z M200 260 l8 -6 l0 12 Z" fill="#F2A541" stroke="#2B2B2B" stroke-width="3" stroke-linecap="round" stroke-linejoin="round"/>

</svg>
