<svg xmlns="http://www.w3.org/2000/svg" viewBox="0 0 400 300" role="img" aria-labelledby="t d">
  <title id="t">You never see them all</title>
  <desc id="d">Birds hidden behind leaves and one silent on a branch, only some visible on the wire.</desc>
  <rect width="400" height="300" fill="#EAF4FB"/>
  <rect x="0" y="220" width="400" height="80" fill="#BFE3B4"/>
  <g transform="translate(300 190) scale(1.1)">
    <rect x="-10" y="-20" width="20" height="70" rx="6" fill="#A0522D" stroke="#2B2B2B" stroke-width="4" stroke-linecap="round" stroke-linejoin="round"/>
    <circle cx="0" cy="-50" r="44" fill="#6AB04C" stroke="#2B2B2B" stroke-width="4" stroke-linecap="round" stroke-linejoin="round"/><circle cx="-36" cy="-30" r="30" fill="#6AB04C" stroke="#2B2B2B" stroke-width="4" stroke-linecap="round" stroke-linejoin="round"/><circle cx="36" cy="-30" r="30" fill="#6AB04C" stroke="#2B2B2B" stroke-width="4" stroke-linecap="round" stroke-linejoin="round"/>
  </g>
  <path d="M0 80 Q200 104 400 80" fill="none" stroke="#2B2B2B" stroke-width="3"/>
  <g transform="translate(28 73.4) scale(0.8)"><ellipse cx="0" cy="0" rx="12" ry="9" fill="#A0522D" stroke="#2B2B2B" stroke-width="3" stroke-linecap="round" stroke-linejoin="round"/><circle cx="10" cy="-5" r="6" fill="#A0522D" stroke="#2B2B2B" stroke-width="3" stroke-linecap="round" stroke-linejoin="round"/><path d="M15 -4 L21 -2 L15 0 Z" fill="#F2A541"/></g>
  <g transform="translate(65 75.25) scale(0.8)"><ellipse cx="0" cy="0" rx="12" ry="9" fill="#A0522D" stroke="#2B2B2B" stroke-width="3" stroke-linecap="round" stroke-linejoin="round"/><circle cx="10" cy="-5" r="6" fill="#A0522D" stroke="#2B2B2B" stroke-width="3" stroke-linecap="round" stroke-linejoin="round"/><path d="M15 -4 L21 -2 L15 0 Z" fill="#F2A541"/></g>
  <g transform="translate(102 77.1) scale(0.8)"><ellipse cx="0" cy="0" rx="12" ry="9" fill="#A0522D" stroke="#2B2B2B" stroke-width="3" stroke-linecap="round" stroke-linejoin="round"/><circle cx="10" cy="-5" r="6" fill="#A0522D" stroke="#2B2B2B" stroke-width="3" stroke-linecap="round" stroke-linejoin="round"/><path d="M15 -4 L21 -2 L15 0 Z" fill="#F2A541"/></g>
  <g transform="translate(139 78.95) scale(0.8)"><ellipse cx="0" cy="0" rx="12" ry="9" fill="#A0522D" stroke="#2B2B2B" stroke-width="3" stroke-linecap="round" stroke-linejoin="round"/><circle cx="10" cy="-5" r="6" fill="#A0522D" stroke="#2B2B2B" stroke-width="3" stroke-linecap="round" stroke-linejoin="round"/><path d="M15 -4 L21 -2 L15 0 Z" fill="#F2A541"/></g>
  <g transform="translate(176 80.8) scale(0.8)"><ellipse cx="0" cy="0" rx="12" ry="9" fill="#A0522D" stroke="#2B2B2B" stroke-width="3" stroke-linecap="round" stroke-linejoin="round"/><circle cx="10" cy="-5" r="6" fill="#A0522D" stroke="#2B2B2B" stroke-width="3" stroke-linecap="round" stroke-linejoin="round"/><path d="M15 -4 L21 -2 L15 0 Z" fill="#F2A541"/></g>
  <g transform="translate(280 150) scale(0.8)"><ellipse cx="0" cy="0" rx="12" ry="9" fill="#A0522D" stroke="#2B2B2B" stroke-width="3" stroke-linecap="round" stroke-linejoin="round"/><circle cx="10" cy="-5" r="6" fill="#A0522D" stroke="#2B2B2B" stroke-width="3" stroke-linecap="round" stroke-linejoin="round"/><path d="M15 -4 L21 -2 L15 0 Z" fill="#F2A541"/></g>
  <g transform="translate(330 170) scale(0.8)"><ellipse cx="0" cy="0" rx="12" ry="9" fill="#A0522D" stroke="#2B2B2B" stroke-width="3" stroke-linecap="round" stroke-linejoin="round"/><circle cx="10" cy="-5" r="6" fill="#A0522D" stroke="#2B2B2B" stroke-width="3" stroke-linecap="round" stroke-linejoin="round"/><path d="M15 -4 L21 -2 L15 0 Z" fill="#F2A541"/></g>
  <circle cx="280" cy="150" r="16" fill="none" stroke="#D9534F" stroke-width="3" stroke-dasharray="4 4"/><circle cx="330" cy="170" r="16" fill="none" stroke="#D9534F" stroke-width="3" stroke-dasharray="4 4"/>

</svg>
